<svg xmlns="http://www.w3.org/2000/svg" viewBox="0 0 64 64">
  <!-- Background -->
  <rect width="64" height="64" rx="14" fill="black"/>

  <!-- Elegant B -->
  <path fill="#D6B98C" d="
    M22 12
    L34 12
    C42 12 46 16 46 22
    C46 27 42 30 38 31
    C43 32 48 36 48 42
    C48 50 41 52 33 52
    L22 52
    Z

    M27 18
    L33 18
    C37 18 39 20 39 23
    C39 26 37 28 33 28
    L27 28
    Z

    M27 34
    L34 34
    C39 34 41 36 41 40
    C41 44 38 46 34 46
    L27 46
    Z
  "/>
</svg>